<?xml version="1.0" encoding="utf-8"?>
<!-- Generator: Adobe Illustrator 23.0.1, SVG Export Plug-In . SVG Version: 6.00 Build 0)  -->
<svg version="1.1" id="Layer_1" xmlns="http://www.w3.org/2000/svg" xmlns:xlink="http://www.w3.org/1999/xlink" x="0px" y="0px"
	 viewBox="0 0 185.2 99.9" style="enable-background:new 0 0 185.2 99.9;" xml:space="preserve">
<style type="text/css">
	.st0{fill:#FFFFFF;}
	.st1{fill:#4495D1;}
	.st2{fill:#D8DB26;}
	.st3{fill:#4F5858;}
	.st4{fill:#029447;}
</style>
<g id="logo_lockups">
</g>
<path class="st0" d="M184.7,2.6c-1.5-2.7-4.5-2.5-8-2.5h-90c-3.5,0-6.5-0.2-8,2.5s0.3,6,2.1,9l45,77.9c1.8,3.1,2.8,4.8,5.9,4.8
	s4.1-1.8,5.9-4.8l45-77.9C184.3,8.5,186.2,5.2,184.7,2.6z"/>
<g>
	<g>
		<path class="st1" d="M161.7,25.3c2.3,0,3.2,1.6,2.1,3.6l-30,52c-1.2,2-3,2-4.2,0l-30-52c-1.2-2-0.2-3.6,2.1-3.6
			C101.7,25.3,161.7,25.3,161.7,25.3z"/>
		<polygon class="st2" points="114.8,55.2 119.9,64.1 130.6,60.6 		"/>
		<path class="st0" d="M120.9,65.9l8.7,15c1.2,2,3,2,4.2,0L148.1,56L120.9,65.9z"/>
		<path class="st3" d="M176.7,3.6h-90c-3.4,0-4.9,2.4-3.1,5.4l45,77.9c1.7,3,4.6,3,6.3,0l45-77.9C181.5,6,180.1,3.6,176.7,3.6
			 M138.9,72.1L127,76.4l-2.5-4.3l18.2-6.5L138.9,72.1z M144.3,62.8l-20.8,7.5l-2.5-4.4l27.2-9.8L144.3,62.8z M119.9,64.1l-5.1-8.9
			l15.9,5.4L119.9,64.1z M133.8,80.9c-1.1,2-3,2-4.2,0l-1.6-2.7l9.3-3.3L133.8,80.9z M163.8,28.9l-14.1,24.4l-16.9,6.1l-19.7-7
			L99.6,28.9c-1.2-2-0.2-3.6,2.1-3.6h60.1C164,25.3,165,26.9,163.8,28.9"/>
		<g>
			<polygon class="st0" points="134.1,31.3 131.5,36.5 129.7,37.2 129.7,30.3 132.1,29.3 			"/>
			<polygon class="st0" points="128.3,31.6 128.3,37.7 124.7,39.1 124.7,33.6 			"/>
			<polygon class="st0" points="123.3,35.3 123.3,39.6 121.2,40.4 121.2,36.3 			"/>
			<path class="st0" d="M135.3,43.3c0,0.2,0,0.4-0.1,0.6c-0.3,1.3-1.4,2.2-2.7,2.2s-2.5-0.9-2.7-2.2c-0.1-0.2-0.1-0.4-0.1-0.6h-8.5
				v1.1c0,0.1,0.1,0.2,0.2,0.2l2.6,0.5c0.2,1,0.6,2,1.2,2.9l-1.3,1.9c-0.1,0.1-0.1,0.2,0,0.3l1.6,1.6c0.1,0.1,0.2,0.1,0.3,0l2-1.3
				c0.9,0.6,1.9,1,2.9,1.2l0.5,2.6c0,0.1,0.1,0.2,0.2,0.2h2.2c0.1,0,0.2-0.1,0.2-0.2l0.5-2.6c1-0.2,2-0.6,2.9-1.2l1.9,1.3
				c0.1,0.1,0.2,0.1,0.3,0l1.6-1.6c0.1-0.1,0.1-0.2,0-0.3l-1.3-1.9c0.6-0.9,1-1.9,1.2-2.9l2.6-0.5c0.1,0,0.2-0.1,0.2-0.2v-1.1H135.3
				z"/>
			<polygon class="st0" points="143.9,41.9 121.2,41.9 132.4,37.7 135.2,32.2 136.1,30.4 138.7,37.2 140.7,33.5 			"/>
		</g>
	</g>
	<g>
		<path class="st0" d="M111.3,11.1c0.8,0,1.6,0.3,2.2,0.9c0.1,0.1,0.3,0.1,0.4,0l1.3-1.4c0.1-0.1,0.1-0.3,0-0.5
			c-1.1-1-2.4-1.6-4-1.6c-3.3,0-6,2.7-6,6.1s2.7,6,6,6c1.5,0,2.9-0.5,4-1.6c0.1-0.1,0.1-0.3,0-0.5l-1.3-1.4c-0.1-0.1-0.3-0.1-0.4,0
			c-0.6,0.5-1.4,0.8-2.2,0.8c-1.9,0-3.3-1.6-3.3-3.4S109.4,11.1,111.3,11.1z"/>
		<path class="st0" d="M145.1,18h-4V9c0-0.2-0.1-0.3-0.3-0.3h-2c-0.2,0-0.3,0.2-0.3,0.3v11.1c0,0.2,0.1,0.3,0.3,0.3h6.3
			c0.2,0,0.3-0.2,0.3-0.3v-1.8C145.4,18.2,145.3,18,145.1,18z"/>
		<path class="st0" d="M126.8,8.7h-4.1c-0.2,0-0.3,0.2-0.3,0.3v11.1c0,0.2,0.1,0.3,0.3,0.3h4.1c3.2,0,5.8-2.6,5.8-5.9
			C132.6,11.4,130,8.7,126.8,8.7z M126.6,18H125v-6.8h1.6c1.9,0,3.2,1.5,3.2,3.4C129.9,16.5,128.5,18,126.6,18z"/>
		<path class="st0" d="M157.9,18h-4v-2.6h3.8c0.2,0,0.3-0.1,0.3-0.3v-1.7c0-0.2-0.1-0.3-0.3-0.3h-3.8v-2h3.9c0.2,0,0.3-0.1,0.3-0.3
			V9c0-0.2-0.1-0.3-0.3-0.3h-4.2h-1.8h-0.1c-0.2,0-0.3,0.2-0.3,0.3v11.1c0,0.2,0.1,0.3,0.3,0.3h6.3c0.2,0,0.3-0.2,0.3-0.3v-1.8
			C158.2,18.2,158,18,157.9,18z"/>
	</g>
</g>
<g>
	<path class="st0" d="M112.1,90.9h-0.9c-0.1,0-0.1-0.1-0.1-0.1v-0.5c0-0.1,0-0.1,0.1-0.1h2.6c0.1,0,0.1,0.1,0.1,0.1v0.5
		c0,0.1,0,0.1-0.1,0.1h-0.9v3.4c0,0.1-0.1,0.1-0.1,0.1h-0.6c-0.1,0-0.1-0.1-0.1-0.1V90.9z"/>
	<path class="st0" d="M115.5,90.2C115.5,90.1,115.5,90.1,115.5,90.2l0.2-0.1c0.1,0,0.1,0,0.1,0.1l1.3,2.8l0,0l1.3-2.8
		c0,0,0-0.1,0.1-0.1h0.1c0.1,0,0.1,0,0.1,0.1l0.7,4c0,0.1,0,0.1-0.1,0.1h-0.5c-0.1,0-0.1-0.1-0.1-0.1l-0.4-2.3l0,0l-1.1,2.4
		c0,0,0,0.1-0.1,0.1H117c-0.1,0-0.1,0-0.1-0.1l-1.1-2.4l0,0l-0.3,2.3l-0.1,0.1h-0.5c-0.1,0-0.1-0.1-0.1-0.1L115.5,90.2z"/>
</g>
<g>
	<path class="st0" d="M104.7,82.9L59.6,4.8c-1.8-3-2.9-4.8-5.9-4.8c-3.1,0-4.1,1.8-5.9,4.8L2.7,82.9C0.9,86-1,89.3,0.6,92
		c1.5,2.7,4.5,2.5,8,2.5h90.2c3.6,0,6.5,0.2,8-2.5C108.3,89.3,106.4,86,104.7,82.9z M102.6,88.1c0-0.8-0.2-1.7-0.7-2.6L56.8,7.4
		c-1.7-3-4.6-3-6.3,0L5.4,85.5c-0.3,0.6-0.5,1.1-0.6,1.6c-0.1,0.3-0.1,0.7-0.1,1c0-0.3,0-0.6,0.1-1c0.1-0.5,0.3-1.1,0.6-1.6
		L50.5,7.4c0.9-1.5,2-2.2,3.1-2.2s2.3,0.7,3.1,2.2l45.1,78.1C102.4,86.5,102.7,87.4,102.6,88.1z"/>
	<g>
		<path class="st4" d="M8.6,91c-3.5,0-4.9-2.4-3.1-5.4l45-78.2c1.7-3,4.6-3,6.3,0l45.1,78.1c1.7,3,0.3,5.4-3.1,5.4L8.6,91L8.6,91z"
			/>
	</g>
	<path class="st0" d="M39,37.1c-0.4,0.7-0.1,1,0.6,0.6l5.3-2.7c0.8-0.4,1.7-0.1,2.1,0.7l3.5,7.7c0.4,0.8,1,0.8,1.5,0.1l6.3-10.3
		c0.5-0.7,1.4-0.9,2-0.3l10,8.6c0.7,0.6,0.9,0.4,0.4-0.3L54.5,12.8c-0.4-0.7-1.1-0.7-1.6,0L39,37.1z"/>
	<path class="st0" d="M51.7,60.1c0,0,0.1-0.1,0.1-0.2c0-0.1-0.1-0.2-0.1-0.3c-2.5-3.2-6.3-5.2-10.6-5.2c-7.4,0-13.4,6-13.4,13.4
		s6,13.4,13.4,13.4c4.1,0,7.7-1.8,10.2-4.7c0,0,0,0,0.1-0.1c0.4-0.4-0.1-0.7-0.1-0.7l-5-2.9c0,0-0.4-0.3-0.8,0.1L45.4,73
		c-1.2,0.9-2.6,1.5-4.2,1.5c-3.7,0-6.7-3-6.7-6.7s3-6.7,6.7-6.7c1.8,0,3.5,0.7,4.7,1.9l0,0c0.3,0.3,0.6,0.1,0.6,0.1L51.7,60.1"/>
	<path class="st0" d="M67,61c3.7,0,6.8,3,6.8,6.7s-3,6.7-6.8,6.7c-3.7,0-6.7-3-6.7-6.7C60.2,64.1,63.2,61,67,61 M67,81.2
		c7.4,0,13.4-6,13.4-13.4s-6-13.4-13.4-13.4s-13.4,6-13.4,13.4C53.5,75.2,59.6,81.2,67,81.2"/>
</g>
</svg>
