<?xml version="1.0" encoding="utf-8"?>
<!-- Generator: Adobe Illustrator 22.1.0, SVG Export Plug-In . SVG Version: 6.00 Build 0)  -->
<svg version="1.1" id="Layer_1" xmlns="http://www.w3.org/2000/svg" xmlns:xlink="http://www.w3.org/1999/xlink" x="0px" y="0px"
	 viewBox="0 0 510.6 99.9" style="enable-background:new 0 0 510.6 99.9;" xml:space="preserve">
<style type="text/css">
	.st0{fill:#FFFFFF;}
	.st1{fill:#4495D1;}
	.st2{fill:#D8DB26;}
	.st3{fill:#4F5858;}
	.st4{fill:#029447;}
</style>
<g id="logo_lockups">
</g>
<g id="width_guide">
	<g>
		<path class="st0" d="M184.7,2.6c-1.5-2.7-4.5-2.5-8-2.5h-90c-3.5,0-6.5-0.2-8,2.5s0.3,6,2.1,9l45,77.9c1.8,3.1,2.8,4.8,5.9,4.8
			s4.1-1.8,5.9-4.8l45-77.9C184.3,8.5,186.2,5.2,184.7,2.6z"/>
		<g>
			<g>
				<path class="st1" d="M161.7,25.3c2.3,0,3.2,1.6,2.1,3.6l-30,52c-1.2,2-3,2-4.2,0l-30-52c-1.2-2-0.2-3.6,2.1-3.6
					C101.7,25.3,161.7,25.3,161.7,25.3z"/>
				<polygon class="st2" points="114.8,55.2 119.9,64.1 130.6,60.6 				"/>
				<path class="st0" d="M120.9,65.9l8.7,15c1.2,2,3,2,4.2,0L148.1,56L120.9,65.9z"/>
				<path class="st3" d="M176.7,3.6h-90c-3.4,0-4.9,2.4-3.1,5.4l45,77.9c1.7,3,4.6,3,6.3,0l45-77.9C181.5,6,180.1,3.6,176.7,3.6
					 M138.9,72.1L127,76.4l-2.5-4.3l18.2-6.5L138.9,72.1z M144.3,62.8l-20.8,7.5l-2.5-4.4l27.2-9.8L144.3,62.8z M119.9,64.1
					l-5.1-8.9l15.9,5.4L119.9,64.1z M133.8,80.9c-1.1,2-3,2-4.2,0l-1.6-2.7l9.3-3.3L133.8,80.9z M163.8,28.9l-14.1,24.4l-16.9,6.1
					l-19.7-7L99.6,28.9c-1.2-2-0.2-3.6,2.1-3.6h60.1C164,25.3,165,26.9,163.8,28.9"/>
				<g>
					<polygon class="st0" points="134.1,31.3 131.5,36.5 129.7,37.2 129.7,30.3 132.1,29.3 					"/>
					<polygon class="st0" points="128.3,31.6 128.3,37.7 124.7,39.1 124.7,33.6 					"/>
					<polygon class="st0" points="123.3,35.3 123.3,39.6 121.2,40.4 121.2,36.3 					"/>
					<path class="st0" d="M135.3,43.3c0,0.2,0,0.4-0.1,0.6c-0.3,1.3-1.4,2.2-2.7,2.2s-2.5-0.9-2.7-2.2c-0.1-0.2-0.1-0.4-0.1-0.6
						h-8.5v1.1c0,0.1,0.1,0.2,0.2,0.2l2.6,0.5c0.2,1,0.6,2,1.2,2.9l-1.3,1.9c-0.1,0.1-0.1,0.2,0,0.3l1.6,1.6c0.1,0.1,0.2,0.1,0.3,0
						l2-1.3c0.9,0.6,1.9,1,2.9,1.2l0.5,2.6c0,0.1,0.1,0.2,0.2,0.2h2.2c0.1,0,0.2-0.1,0.2-0.2l0.5-2.6c1-0.2,2-0.6,2.9-1.2l1.9,1.3
						c0.1,0.1,0.2,0.1,0.3,0l1.6-1.6c0.1-0.1,0.1-0.2,0-0.3l-1.3-1.9c0.6-0.9,1-1.9,1.2-2.9l2.6-0.5c0.1,0,0.2-0.1,0.2-0.2v-1.1
						H135.3z"/>
					<polygon class="st0" points="143.9,41.9 121.2,41.9 132.4,37.7 135.2,32.2 136.1,30.4 138.7,37.2 140.7,33.5 					"/>
				</g>
			</g>
			<g>
				<path class="st0" d="M111.3,11.1c0.8,0,1.6,0.3,2.2,0.9c0.1,0.1,0.3,0.1,0.4,0l1.3-1.4c0.1-0.1,0.1-0.3,0-0.5
					c-1.1-1-2.4-1.6-4-1.6c-3.3,0-6,2.7-6,6.1s2.7,6,6,6c1.5,0,2.9-0.5,4-1.6c0.1-0.1,0.1-0.3,0-0.5l-1.3-1.4
					c-0.1-0.1-0.3-0.1-0.4,0c-0.6,0.5-1.4,0.8-2.2,0.8c-1.9,0-3.3-1.6-3.3-3.4S109.4,11.1,111.3,11.1z"/>
				<path class="st0" d="M145.1,18h-4V9c0-0.2-0.1-0.3-0.3-0.3h-2c-0.2,0-0.3,0.2-0.3,0.3v11.1c0,0.2,0.1,0.3,0.3,0.3h6.3
					c0.2,0,0.3-0.2,0.3-0.3v-1.8C145.4,18.2,145.3,18,145.1,18z"/>
				<path class="st0" d="M126.8,8.7h-4.1c-0.2,0-0.3,0.2-0.3,0.3v11.1c0,0.2,0.1,0.3,0.3,0.3h4.1c3.2,0,5.8-2.6,5.8-5.9
					C132.6,11.4,130,8.7,126.8,8.7z M126.6,18H125v-6.8h1.6c1.9,0,3.2,1.5,3.2,3.4C129.9,16.5,128.5,18,126.6,18z"/>
				<path class="st0" d="M157.9,18h-4v-2.6h3.8c0.2,0,0.3-0.1,0.3-0.3v-1.7c0-0.2-0.1-0.3-0.3-0.3h-3.8v-2h3.9
					c0.2,0,0.3-0.1,0.3-0.3V9c0-0.2-0.1-0.3-0.3-0.3h-4.2h-1.8h-0.1c-0.2,0-0.3,0.2-0.3,0.3v11.1c0,0.2,0.1,0.3,0.3,0.3h6.3
					c0.2,0,0.3-0.2,0.3-0.3v-1.8C158.2,18.2,158,18,157.9,18z"/>
			</g>
		</g>
		<g>
			<path class="st0" d="M112.1,90.9h-0.9c-0.1,0-0.1-0.1-0.1-0.1v-0.5c0-0.1,0-0.1,0.1-0.1h2.6c0.1,0,0.1,0.1,0.1,0.1v0.5
				c0,0.1,0,0.1-0.1,0.1h-0.9v3.4c0,0.1-0.1,0.1-0.1,0.1h-0.6c-0.1,0-0.1-0.1-0.1-0.1V90.9z"/>
			<path class="st0" d="M115.5,90.2C115.5,90.1,115.5,90.1,115.5,90.2l0.2-0.1c0.1,0,0.1,0,0.1,0.1l1.3,2.8l0,0l1.3-2.8
				c0,0,0-0.1,0.1-0.1h0.1c0.1,0,0.1,0,0.1,0.1l0.7,4c0,0.1,0,0.1-0.1,0.1h-0.5c-0.1,0-0.1-0.1-0.1-0.1l-0.4-2.3l0,0l-1.1,2.4
				c0,0,0,0.1-0.1,0.1H117c-0.1,0-0.1,0-0.1-0.1l-1.1-2.4l0,0l-0.3,2.3l-0.1,0.1h-0.5c-0.1,0-0.1-0.1-0.1-0.1L115.5,90.2z"/>
		</g>
		<g>
			<path class="st0" d="M104.7,82.9L59.6,4.8c-1.8-3-2.9-4.8-5.9-4.8c-3.1,0-4.1,1.8-5.9,4.8L2.7,82.9C0.9,86-1,89.3,0.6,92
				c1.5,2.7,4.5,2.5,8,2.5h90.2c3.6,0,6.5,0.2,8-2.5C108.3,89.3,106.4,86,104.7,82.9z M102.6,88.1c0-0.8-0.2-1.7-0.7-2.6L56.8,7.4
				c-1.7-3-4.6-3-6.3,0L5.4,85.5c-0.3,0.6-0.5,1.1-0.6,1.6c-0.1,0.3-0.1,0.7-0.1,1c0-0.3,0-0.6,0.1-1c0.1-0.5,0.3-1.1,0.6-1.6
				L50.5,7.4c0.9-1.5,2-2.2,3.1-2.2s2.3,0.7,3.1,2.2l45.1,78.1C102.4,86.5,102.7,87.4,102.6,88.1z"/>
			<g>
				<path class="st4" d="M8.6,91c-3.5,0-4.9-2.4-3.1-5.4l45-78.2c1.7-3,4.6-3,6.3,0l45.1,78.1c1.7,3,0.3,5.4-3.1,5.4L8.6,91L8.6,91z
					"/>
			</g>
			<path class="st0" d="M39,37.1c-0.4,0.7-0.1,1,0.6,0.6l5.3-2.7c0.8-0.4,1.7-0.1,2.1,0.7l3.5,7.7c0.4,0.8,1,0.8,1.5,0.1l6.3-10.3
				c0.5-0.7,1.4-0.9,2-0.3l10,8.6c0.7,0.6,0.9,0.4,0.4-0.3L54.5,12.8c-0.4-0.7-1.1-0.7-1.6,0L39,37.1z"/>
			<path class="st0" d="M51.7,60.1c0,0,0.1-0.1,0.1-0.2c0-0.1-0.1-0.2-0.1-0.3c-2.5-3.2-6.3-5.2-10.6-5.2c-7.4,0-13.4,6-13.4,13.4
				s6,13.4,13.4,13.4c4.1,0,7.7-1.8,10.2-4.7c0,0,0,0,0.1-0.1c0.4-0.4-0.1-0.7-0.1-0.7l-5-2.9c0,0-0.4-0.3-0.8,0.1L45.4,73
				c-1.2,0.9-2.6,1.5-4.2,1.5c-3.7,0-6.7-3-6.7-6.7s3-6.7,6.7-6.7c1.8,0,3.5,0.7,4.7,1.9l0,0c0.3,0.3,0.6,0.1,0.6,0.1L51.7,60.1"/>
			<path class="st0" d="M67,61c3.7,0,6.8,3,6.8,6.7s-3,6.7-6.8,6.7c-3.7,0-6.7-3-6.7-6.7C60.2,64.1,63.2,61,67,61 M67,81.2
				c7.4,0,13.4-6,13.4-13.4s-6-13.4-13.4-13.4s-13.4,6-13.4,13.4C53.5,75.2,59.6,81.2,67,81.2"/>
		</g>
		<g>
			<path class="st0" d="M225.6,5.7c1.9,0,3.7,0.7,5.1,1.9c0.3,0.3,0.7,0.3,1,0l3-3.1c0.3-0.3,0.3-0.8,0-1.1C232,1.2,229.2,0,225.4,0
				c-7.6,0-13.7,6.1-13.7,13.7s6.1,13.6,13.7,13.6c3.4,0,6.6-1.2,9.2-3.7c0.3-0.3,0.3-0.8,0-1l-3-3.1c-0.2-0.3-0.7-0.3-1,0
				c-1.4,1.2-3.3,1.8-5.1,1.8c-4.3,0-7.5-3.5-7.5-7.7C218.1,9.3,221.3,5.7,225.6,5.7"/>
			<path class="st0" d="M259.1,0c-7.6,0-13.6,6.1-13.6,13.7s6,13.6,13.6,13.6s13.7-6,13.7-13.6C272.8,6.1,266.7,0,259.1,0
				 M259.1,21.3c-4.1,0-7.5-3.4-7.5-7.6s3.4-7.6,7.5-7.6c4.2,0,7.6,3.5,7.6,7.6S263.3,21.3,259.1,21.3"/>
			<path class="st0" d="M300.5,21.4h-9.2V1.1c0-0.4-0.3-0.7-0.7-0.7h-4.5c-0.4,0-0.7,0.3-0.7,0.7v25.1c0,0.4,0.3,0.7,0.7,0.7h14.4
				c0.4,0,0.7-0.3,0.7-0.7v-4.1C301.3,21.7,301,21.4,300.5,21.4"/>
			<path class="st0" d="M325.3,0c-7.6,0-13.6,6.1-13.6,13.7s6,13.6,13.6,13.6s13.7-6,13.7-13.6S332.9,0,325.3,0 M325.3,21.3
				c-4.1,0-7.6-3.4-7.6-7.6s3.4-7.6,7.6-7.6s7.6,3.5,7.6,7.6S329.5,21.3,325.3,21.3"/>
			<path class="st0" d="M367.1,16.2c3.3-1.3,5.6-4.1,5.6-7.6c0-4.5-3.7-8.2-8.3-8.2h-11.3c-0.4,0-0.7,0.3-0.7,0.7v25.1
				c0,0.4,0.3,0.7,0.7,0.7h4.5c0.4,0,0.7-0.3,0.7-0.7v-9.7h2.6l5.4,10c0.1,0.2,0.3,0.3,0.6,0.3h5c0.6,0,0.9-0.6,0.6-1.1L367.1,16.2z
				 M364,11.7h-5.6V5.8h5.6c1.6,0,2.9,1.3,2.9,2.9S365.5,11.7,364,11.7"/>
			<path class="st0" d="M434,0.4h-9.3c-0.4,0-0.7,0.3-0.7,0.7v25.1c0,0.4,0.3,0.7,0.7,0.7h9.3c7.3,0,13.3-5.9,13.3-13.3
				C447.3,6.3,441.3,0.4,434,0.4 M433.6,21.3H430V6h3.6c4.3,0,7.4,3.4,7.4,7.7C441,17.9,437.9,21.3,433.6,21.3"/>
			<path class="st0" d="M472.8,0c-7.6,0-13.6,6.1-13.6,13.7s6,13.6,13.6,13.6s13.7-6,13.7-13.6C486.4,6.1,480.4,0,472.8,0
				 M472.8,21.3c-4.1,0-7.6-3.4-7.6-7.6s3.4-7.6,7.6-7.6s7.6,3.5,7.6,7.6S477,21.3,472.8,21.3"/>
			<path class="st0" d="M399,0.4c-0.1-0.2-0.4-0.4-0.6-0.4H398c-0.3,0-0.5,0.2-0.7,0.4l-11.9,25.5c-0.2,0.5,0.1,1,0.6,1h4.2
				c0.8,0,1.1-0.2,1.4-0.9l1.4-3h10.3l1.4,3c0.4,0.8,0.5,0.9,1.3,0.9h4.2c0.6,0,0.9-0.5,0.6-1L399,0.4z M394.6,18.5l3.5-8l3.5,8
				H394.6z"/>
		</g>
		<g>
			<path class="st0" d="M211.7,66.9v-2.5h2.2V51.1h-2.2v-2.5h7.9c1.6,0,2.9,0.2,3.8,0.4c3.6,1.1,5.9,4.3,5.9,8.7
				c0,4.3-2.1,7.4-5.7,8.6c-1,0.4-2.4,0.5-4,0.5L211.7,66.9L211.7,66.9z M217.2,64.2h2.2c1.2,0,2.2-0.2,3-0.5c2.1-0.8,3.4-3,3.4-6
				s-1.3-5.2-3.5-6c-0.7-0.3-1.6-0.4-2.9-0.4h-2.2V64.2z"/>
			<path class="st0" d="M233.1,55.4c1.2-1.3,2.8-1.9,4.8-1.9c1.8,0,3.3,0.6,4.3,1.8s1.5,2.7,1.5,4.5l-0.1,1.1h-9.1
				c0.2,2.3,1.9,3.7,3.9,3.7c1.3,0,2.7-0.6,3.3-1.1l0.5-0.3l1.3,2.3l-0.7,0.5c-0.3,0.2-0.9,0.5-1.8,0.8c-0.9,0.3-1.9,0.5-2.8,0.5
				c-2.1,0-3.8-0.7-5.1-2s-1.9-3-1.9-4.9C231.3,58.3,231.9,56.6,233.1,55.4z M240.4,58.8c0-1.8-1.1-2.9-2.5-2.9
				c-1.6,0-2.9,1.1-3.2,2.9H240.4z"/>
			<path class="st0" d="M245.5,69.6h1.9V56.7c0-0.4-0.2-0.6-0.6-0.6h-1.5v-2.4h3.4c1.1,0,1.6,0.4,1.6,1.2V55v0.6h0.1
				c0.1-0.1,0.1-0.3,0.6-0.8c0.6-0.7,1.8-1.4,3.6-1.4c1.8,0,3.2,0.6,4.2,1.9c1.1,1.3,1.6,2.9,1.6,5s-0.6,3.7-1.7,5s-2.5,1.9-4.3,1.9
				c-1.5,0-2.9-0.8-3.4-1.4l-0.4-0.5h-0.1c0.1,0.3,0.1,0.7,0.1,1.1v3.1h1.9V72h-7.1L245.5,69.6L245.5,69.6z M251.4,63.2
				c0.6,0.8,1.4,1.2,2.4,1.2c1.9,0,3.3-1.6,3.3-4.1s-1.3-4.1-3.3-4.1c-1.9,0-3.3,1.4-3.3,4.1C250.6,61.5,250.9,62.4,251.4,63.2z"/>
			<path class="st0" d="M263.9,59.9c0.5-0.3,1.2-0.5,1.9-0.7c1.5-0.4,2.4-0.4,3.5-0.4h0.8v-0.4c0-1.5-0.8-2.3-2.4-2.3
				c-1.2,0-2.6,0.5-3.2,0.9l-0.5,0.3l-1.2-2.3c0.2-0.1,0.4-0.3,0.6-0.4c0.3-0.2,0.9-0.4,1.8-0.7s1.8-0.5,2.8-0.5
				c3.5,0,5.4,1.8,5.4,5.2v5.3c0,0.4,0.2,0.6,0.6,0.6h1.2v2.4h-3.1c-1.1,0-1.7-0.6-1.7-1.4v-0.2l0.1-0.7h-0.1
				c-0.1,0.1-0.1,0.3-0.6,0.9c-0.6,0.7-1.7,1.6-3.6,1.6c-1.2,0-2.2-0.3-3.1-1s-1.3-1.7-1.3-3C262,61.7,262.9,60.5,263.9,59.9z
				 M267.2,64.7c0.8,0,1.5-0.4,2.1-1.1c0.6-0.7,0.9-1.6,0.9-2.4v-0.4h-0.5c-0.8,0-1.6,0.1-2.7,0.4c-1,0.2-1.7,0.9-1.7,1.8
				C265.3,64,266,64.7,267.2,64.7z"/>
			<path class="st0" d="M276.8,66.9v-2.4h1.9v-7.7c0-0.4-0.2-0.6-0.6-0.6h-1.5v-2.4h3.4c1.2,0,1.8,0.5,1.8,1.6v0.8l-0.1,0.8h0.1
				c0.6-2,2.2-3.4,4.2-3.4l0.6,0.1v3.2c-0.2,0-0.5-0.1-0.8-0.1c-1.3,0-2.2,0.5-2.9,1.4c-0.6,0.9-1,2.1-1,3.4v2.9h1.9v2.4H276.8z"/>
			<path class="st0" d="M290,56.2h-2v-2.4h2.1v-3.6h3.2v3.6h3v2.4h-3v5.5c0,2.2,1.7,2.5,2.6,2.5h0.6v2.7c-0.3,0.1-0.6,0.1-1,0.1
				c-0.9,0-1.7-0.1-2.7-0.5c-1.5-0.6-2.8-1.8-2.8-4.5L290,56.2L290,56.2z"/>
			<path class="st0" d="M299.4,66.9v-2.4h1.9v-7.7c0-0.4-0.2-0.5-0.6-0.5h-1.5v-2.4h3.4c1.2,0,1.7,0.5,1.7,1.5V56l-0.1,0.6h0.1
				c0.7-1.5,2.5-2.9,4.5-2.9s3.2,1,3.7,2.9h0.1c0.7-1.6,2.6-2.9,4.6-2.9c2.8,0,4.2,1.7,4.2,5v6h1.9v2.4h-5.2V59
				c0-1.7-0.4-2.6-1.8-2.6c-1.1,0-1.9,0.5-2.5,1.4s-0.9,2-0.9,3.3v3.3h1.9v2.4h-5.2V59c0-1.7-0.4-2.6-1.8-2.6
				c-1.1,0-1.9,0.5-2.5,1.4c-0.6,1-0.9,2.1-0.9,3.4v3.2h1.9v2.4L299.4,66.9L299.4,66.9z"/>
			<path class="st0" d="M326.5,55.4c1.2-1.3,2.8-1.9,4.8-1.9c1.8,0,3.3,0.6,4.3,1.8s1.5,2.7,1.5,4.5l-0.1,1.1h-9
				c0.2,2.3,1.9,3.7,3.9,3.7c1.3,0,2.7-0.6,3.3-1.1l0.5-0.3l1.3,2.3l-0.7,0.5c-0.3,0.2-0.9,0.5-1.8,0.8s-1.9,0.5-2.8,0.5
				c-2.1,0-3.8-0.7-5.1-2c-1.3-1.3-1.9-3-1.9-4.9C324.7,58.3,325.3,56.6,326.5,55.4z M333.8,58.8c0-1.8-1.1-2.9-2.5-2.9
				c-1.6,0-2.9,1.1-3.2,2.9H333.8z"/>
			<path class="st0" d="M339.2,66.9v-2.4h1.9v-7.7c0-0.4-0.2-0.6-0.6-0.6H339v-2.4h3.4c1.1,0,1.7,0.5,1.7,1.5v0.6l-0.1,0.6h0.1
				c0.1-0.3,0.5-0.9,1.2-1.6c0.7-0.7,2.1-1.3,3.6-1.3c2.9,0,4.4,1.7,4.4,5v6h1.9V67H350v-7.8c0-1.8-0.5-2.7-2.1-2.7
				c-1.1,0-2,0.5-2.7,1.4s-1,2-1,3.2v3.5h1.9V67h-6.9V66.9z"/>
			<path class="st0" d="M358.4,56.2h-2v-2.4h2.1v-3.6h3.2v3.6h3v2.4h-3v5.5c0,2.2,1.7,2.5,2.6,2.5h0.6v2.7c-0.3,0.1-0.6,0.1-1,0.1
				c-0.9,0-1.7-0.1-2.7-0.5c-1.5-0.6-2.8-1.8-2.8-4.5L358.4,56.2L358.4,56.2z"/>
			<path class="st0" d="M374.8,65.2c-1.4-1.3-2.1-3-2.1-4.9c0-2,0.7-3.6,2.1-4.9c1.4-1.3,3.1-2,5.1-2s3.7,0.6,5.1,2
				c1.4,1.3,2.1,2.9,2.1,4.9s-0.7,3.6-2.1,4.9s-3.1,1.9-5.1,1.9C377.9,67.2,376.2,66.5,374.8,65.2z M377.2,63.3
				c0.7,0.7,1.7,1.1,2.8,1.1c1.1,0,2-0.4,2.8-1.1c0.7-0.8,1.1-1.8,1.1-3s-0.4-2.2-1.1-2.9c-0.7-0.8-1.7-1.2-2.8-1.2
				c-1.1,0-2,0.4-2.8,1.2c-0.7,0.8-1.1,1.8-1.1,2.9C376,61.5,376.4,62.5,377.2,63.3z"/>
			<path class="st0" d="M389.1,66.9v-2.4h1.9v-8.2h-2v-2.4h2v-0.6c0-1.6,0.6-2.9,1.3-3.5c0.4-0.3,0.8-0.6,1.3-0.8
				c1-0.4,1.7-0.5,2.5-0.5l1.3,0.1v2.6c-0.2-0.1-0.6-0.1-1-0.1c-1.5,0-2.2,0.7-2.2,2.1v0.7h3v2.4h-3v8.2h2.2v2.4H389.1z"/>
			<path class="st0" d="M211.7,94.5V92h2.2V79h-2.2v-2.7h7.8V79h-2.2v12.9h5.4V89h2.9v5.5H211.7z"/>
			<path class="st0" d="M229.8,87.6c0.5-0.3,1.2-0.5,1.9-0.7c1.5-0.4,2.4-0.4,3.5-0.4h0.8V86c0-1.5-0.8-2.3-2.4-2.3
				c-1.2,0-2.6,0.5-3.2,0.9l-0.5,0.3l-1.2-2.3c0.2-0.1,0.4-0.3,0.6-0.4c0.3-0.2,0.9-0.4,1.8-0.7c0.9-0.3,1.8-0.5,2.8-0.5
				c3.5,0,5.4,1.8,5.4,5.2v5.3c0,0.4,0.2,0.6,0.6,0.6h1.2v2.4H238c-1.1,0-1.7-0.6-1.7-1.4V93l0.1-0.7h-0.1c-0.1,0.1-0.1,0.3-0.6,0.9
				c-0.6,0.7-1.7,1.6-3.6,1.6c-1.2,0-2.2-0.3-3.1-1c-0.8-0.7-1.3-1.7-1.3-3C227.8,89.3,228.7,88.2,229.8,87.6z M233,92.4
				c0.8,0,1.5-0.4,2.1-1.1s0.9-1.6,0.9-2.4v-0.4h-0.5c-0.8,0-1.6,0.1-2.7,0.4c-1,0.2-1.7,0.9-1.7,1.8
				C231.1,91.6,231.9,92.4,233,92.4z"/>
			<path class="st0" d="M243.6,94.5V78.7h-2v-2.4h5.3V82l-0.1,1.1h0.1c0.1-0.1,0.1-0.2,0.6-0.7c0.6-0.6,1.7-1.3,3.3-1.3
				c1.8,0,3.2,0.6,4.2,1.9c1.1,1.3,1.6,2.9,1.6,5s-0.6,3.7-1.7,5c-1.1,1.3-2.6,1.9-4.4,1.9c-2.2,0-3.5-1.3-3.8-1.9l-0.1-0.2h-0.1
				c0,0.3,0.1,0.6,0.1,1v0.8L243.6,94.5L243.6,94.5z M247.6,90.9c0.6,0.8,1.4,1.2,2.4,1.2c1.9,0,3.3-1.6,3.3-4.1s-1.3-4.1-3.3-4.1
				c-1.9,0-3.3,1.4-3.3,4.1C246.8,89.2,247,90.1,247.6,90.9z"/>
			<path class="st0" d="M260.4,92.9c-1.4-1.3-2.1-3-2.1-4.9c0-2,0.7-3.6,2.1-4.9s3.1-2,5.1-2s3.7,0.6,5.1,2c1.4,1.3,2.1,2.9,2.1,4.9
				s-0.7,3.6-2.1,4.9s-3.1,1.9-5.1,1.9S261.8,94.2,260.4,92.9z M262.8,90.9c0.7,0.7,1.7,1.1,2.8,1.1c1.1,0,2-0.4,2.8-1.1
				c0.7-0.8,1.1-1.8,1.1-3s-0.4-2.2-1.1-2.9c-0.7-0.8-1.7-1.2-2.8-1.2c-1.1,0-2,0.4-2.8,1.2c-0.7,0.8-1.1,1.8-1.1,2.9
				C261.6,89.2,262,90.2,262.8,90.9z"/>
			<path class="st0" d="M274.7,94.5v-2.4h1.9v-7.7c0-0.4-0.2-0.6-0.6-0.6h-1.5v-2.4h3.4c1.2,0,1.8,0.5,1.8,1.6v0.8l-0.1,0.8h0.1
				c0.6-2,2.2-3.4,4.2-3.4l0.6,0.1v3.2c-0.2,0-0.5-0.1-0.8-0.1c-1.3,0-2.2,0.5-2.9,1.4c-0.6,0.9-1,2.1-1,3.4v2.9h1.9v2.4
				C281.7,94.5,274.7,94.5,274.7,94.5z"/>
			<path class="st0" d="M293.8,87.6c0.5-0.3,1.2-0.5,1.9-0.7c1.5-0.4,2.4-0.4,3.5-0.4h0.8V86c0-1.5-0.8-2.3-2.4-2.3
				c-1.2,0-2.6,0.5-3.2,0.9L294,85l-1.2-2.3c0.2-0.1,0.4-0.3,0.6-0.4c0.3-0.2,0.9-0.4,1.8-0.7c0.9-0.3,1.8-0.5,2.8-0.5
				c3.5,0,5.4,1.8,5.4,5.2v5.3c0,0.4,0.2,0.6,0.6,0.6h1.2v2.4H302c-1.1,0-1.7-0.6-1.7-1.4V93l0.1-0.7h-0.1c-0.1,0.1-0.1,0.3-0.6,0.9
				c-0.6,0.7-1.7,1.6-3.6,1.6c-1.2,0-2.2-0.3-3.1-1s-1.3-1.7-1.3-3C291.9,89.3,292.8,88.2,293.8,87.6z M297.1,92.4
				c0.8,0,1.5-0.4,2.1-1.1s0.9-1.6,0.9-2.4v-0.4h-0.5c-0.8,0-1.6,0.1-2.7,0.4c-1,0.2-1.7,0.9-1.7,1.8
				C295.2,91.6,295.9,92.4,297.1,92.4z"/>
			<path class="st0" d="M306.8,94.5v-2.4h1.9v-7.7c0-0.4-0.2-0.6-0.6-0.6h-1.5v-2.4h3.5c1.1,0,1.7,0.5,1.7,1.5v0.6l-0.1,0.6h0.1
				c0.1-0.3,0.5-0.9,1.2-1.6s2.1-1.3,3.6-1.3c2.9,0,4.4,1.7,4.4,5v6h1.9v2.4h-5.2v-7.8c0-1.8-0.5-2.7-2.1-2.7c-1.1,0-2,0.5-2.7,1.4
				s-1,2-1,3.2v3.5h1.9v2.4L306.8,94.5L306.8,94.5z"/>
			<path class="st0" d="M325.5,83c1.1-1.3,2.6-1.9,4.4-1.9c2.2,0,3.3,1.2,3.7,1.6l0.1,0.2h0.1c0-0.3-0.1-0.6-0.1-0.9v-3.3h-2v-2.4
				h5.3v15.3c0,0.4,0.2,0.6,0.6,0.6h1.2v2.4h-3.1c-1.1,0-1.7-0.6-1.7-1.4V93l0.1-0.6H334c-0.1,0.1-0.1,0.3-0.6,0.8
				c-0.6,0.7-1.7,1.6-3.7,1.6c-1.7,0-3.1-0.6-4.2-1.9s-1.6-2.9-1.6-5C323.8,85.9,324.3,84.2,325.5,83z M330.3,92.1
				c1.9,0,3.3-1.4,3.3-4c0-1.2-0.3-2.1-0.8-2.9s-1.3-1.2-2.4-1.2c-1.9,0-3.3,1.6-3.3,4.1C327.1,90.4,328.4,92.1,330.3,92.1z"/>
			<path class="st0" d="M346.9,94.5V92h2.2V78.8h-2.2v-2.5h13.6V81h-2.9v-2h-5.1v5h6v2.7h-6v5.2h5.5v-2.1h2.9v4.8L346.9,94.5
				L346.9,94.5z"/>
			<path class="st0" d="M363.1,94.5v-2.4h1.9v-7.7c0-0.4-0.2-0.5-0.6-0.5H363v-2.4h3.4c1.2,0,1.7,0.5,1.7,1.5v0.6l-0.1,0.6h0.1
				c0.7-1.5,2.5-2.9,4.5-2.9s3.2,1,3.7,2.9h0.1c0.7-1.6,2.6-2.9,4.6-2.9c2.8,0,4.2,1.7,4.2,5v6h1.9v2.4h-5.2v-7.8
				c0-1.7-0.4-2.6-1.8-2.6c-1.1,0-1.9,0.5-2.5,1.4s-0.9,2-0.9,3.3v3.3h1.9v2.4h-5.2v-7.8c0-1.7-0.4-2.6-1.8-2.6
				c-1.1,0-1.9,0.5-2.5,1.4c-0.6,1-0.9,2.1-0.9,3.4v3.2h1.9v2.4h-7V94.5z"/>
			<path class="st0" d="M388.4,97.2h1.9V84.4c0-0.4-0.2-0.6-0.6-0.6h-1.5v-2.4h3.4c1.1,0,1.6,0.4,1.6,1.2v0.1v0.6h0.1
				c0.1-0.1,0.1-0.3,0.6-0.8c0.6-0.7,1.8-1.4,3.6-1.4c1.8,0,3.2,0.6,4.2,1.9c1.1,1.3,1.6,2.9,1.6,5s-0.6,3.7-1.7,5s-2.6,1.9-4.3,1.9
				c-1.5,0-2.9-0.8-3.4-1.4l-0.4-0.5h-0.1c0.1,0.3,0.1,0.7,0.1,1.1v3.1h1.9v2.4h-7.1L388.4,97.2L388.4,97.2z M394.3,90.9
				c0.6,0.8,1.4,1.2,2.4,1.2c1.9,0,3.3-1.6,3.3-4.1s-1.3-4.1-3.3-4.1c-1.9,0-3.3,1.4-3.3,4.1C393.4,89.2,393.7,90.1,394.3,90.9z"/>
			<path class="st0" d="M406,78.7h-2v-2.4h5.3v13.9c0,1.3,0.3,1.8,1.3,1.8h0.6v2.6c-0.4,0.1-0.7,0.1-1.2,0.1c-1.2,0-2.2-0.3-2.9-0.9
				c-0.7-0.6-1.1-1.8-1.1-3.4L406,78.7L406,78.7z"/>
			<path class="st0" d="M414.9,92.9c-1.4-1.3-2.1-3-2.1-4.9c0-2,0.7-3.6,2.1-4.9s3.1-2,5.1-2s3.7,0.6,5.1,2c1.4,1.3,2.1,2.9,2.1,4.9
				s-0.7,3.6-2.1,4.9s-3.1,1.9-5.1,1.9S416.3,94.2,414.9,92.9z M417.2,90.9c0.7,0.7,1.7,1.1,2.8,1.1c1.1,0,2-0.4,2.8-1.1
				c0.7-0.8,1.1-1.8,1.1-3s-0.4-2.2-1.1-2.9c-0.7-0.8-1.7-1.2-2.8-1.2c-1.1,0-2,0.4-2.8,1.2c-0.7,0.8-1.1,1.8-1.1,2.9
				C416.1,89.2,416.5,90.2,417.2,90.9z"/>
			<path class="st0" d="M429.6,96.6c0.5,0.4,1.2,0.6,2,0.6c1.1,0,1.9-0.5,2.3-1.5l0.4-0.8l-4.5-11.1h-1.6v-2.4h6.5v2.4h-1.5l2.4,6.6
				c0.1,0.4,0.3,0.9,0.3,1.2v0.2h0.1c0.1-0.5,0.2-0.9,0.4-1.4l2.4-6.6h-1.5v-2.4h6.2v2.4H442l-5,12.4c-1,2.5-2.7,3.7-5.2,3.7
				c-1.1,0-2.3-0.4-2.8-0.7l-0.4-0.2L429.6,96.6z"/>
			<path class="st0" d="M445.2,94.5v-2.4h1.9v-7.7c0-0.4-0.2-0.5-0.6-0.5H445v-2.4h3.4c1.2,0,1.7,0.5,1.7,1.5v0.6l-0.1,0.6h0.1
				c0.7-1.5,2.5-2.9,4.5-2.9s3.2,1,3.7,2.9h0.1c0.7-1.6,2.6-2.9,4.6-2.9c2.8,0,4.2,1.7,4.2,5v6h1.9v2.4h-5.2v-7.8
				c0-1.7-0.4-2.6-1.8-2.6c-1.1,0-1.9,0.5-2.5,1.4s-0.9,2-0.9,3.3v3.3h1.9v2.4h-5.2v-7.8c0-1.7-0.4-2.6-1.8-2.6
				c-1.1,0-1.9,0.5-2.5,1.4c-0.6,1-0.9,2.1-0.9,3.4v3.2h1.9v2.4h-6.9V94.5z"/>
			<path class="st0" d="M472.3,83c1.2-1.3,2.8-1.9,4.8-1.9c1.8,0,3.3,0.6,4.3,1.8c1,1.2,1.5,2.7,1.5,4.5l-0.1,1.1h-9.1
				c0.2,2.3,1.9,3.7,3.9,3.7c1.3,0,2.7-0.6,3.3-1.1l0.5-0.3l1.3,2.3l-0.7,0.5c-0.3,0.2-0.9,0.5-1.8,0.8s-1.9,0.5-2.8,0.5
				c-2.1,0-3.8-0.7-5.1-2c-1.3-1.3-1.9-3-1.9-4.9C470.4,85.9,471,84.3,472.3,83z M479.6,86.5c0-1.8-1.1-2.9-2.5-2.9
				c-1.6,0-2.9,1.1-3.2,2.9H479.6z"/>
			<path class="st0" d="M485,94.5v-2.4h1.9v-7.7c0-0.4-0.2-0.6-0.6-0.6h-1.5v-2.4h3.4c1.1,0,1.7,0.5,1.7,1.5v0.6l-0.1,0.6h0.1
				c0.1-0.3,0.5-0.9,1.2-1.6s2.1-1.3,3.6-1.3c2.9,0,4.4,1.7,4.4,5v6h1.9v2.4h-5v-7.8c0-1.8-0.5-2.7-2.1-2.7c-1.1,0-2,0.5-2.7,1.4
				s-1,2-1,3.2v3.5h1.9v2.4L485,94.5L485,94.5z"/>
			<path class="st0" d="M504.1,83.9h-2v-2.4h2.1v-3.6h3.2v3.6h3v2.4h-3v5.5c0,2.2,1.7,2.5,2.6,2.5h0.6v2.7c-0.3,0.1-0.6,0.1-1,0.1
				c-0.9,0-1.7-0.1-2.7-0.5c-1.5-0.6-2.8-1.8-2.8-4.5L504.1,83.9L504.1,83.9z"/>
		</g>
		<rect x="195.3" y="0.1" class="st0" width="1.2" height="94.4"/>
	</g>
</g>
</svg>
