<?xml version="1.0" encoding="utf-8"?>
<!-- Generator: Adobe Illustrator 22.1.0, SVG Export Plug-In . SVG Version: 6.00 Build 0)  -->
<svg version="1.1" id="Layer_1" xmlns="http://www.w3.org/2000/svg" xmlns:xlink="http://www.w3.org/1999/xlink" x="0px" y="0px"
	 viewBox="0 0 287.9 122.8" style="enable-background:new 0 0 287.9 122.8;" xml:space="preserve">
<style type="text/css">
	.st0{fill:#FFFFFF;}
</style>
<g>
	<g>
		<g>
			<path class="st0" d="M203.7,70c0.5-0.2,1.6-0.7,2.1-1c0.6-0.3,0.5-0.5,0.3-1c-0.7-2.3-1.1-4.7-1.1-7.3c0-13,10.6-23.6,23.6-23.6
				c13,0,23.5,10.6,23.5,23.6c0,3.3-0.7,6.5-2,9.4c-0.1,0.2-0.1,0.6,0.2,0.8c0.4,0.2,1.8,0.8,2.2,1c0.4,0.2,0.7,0.1,0.9-0.4
				c1.4-3.3,2.2-6.9,2.2-10.8c0-15-12.2-27.2-27.2-27.2c-15,0-27.2,12.2-27.2,27.2c0,3.1,0.5,6,1.5,8.8
				C203,69.9,203.2,70.2,203.7,70z"/>
			<path class="st0" d="M196.8,73.2c0.6-0.3,2.5-1.2,3-1.4c0.5-0.2,0.4-0.7,0.3-0.9c-1.2-3.2-1.8-6.6-1.8-10.1
				c0-16.7,13.5-30.2,30.2-30.2c16.6,0,30.2,13.5,30.2,30.2c0,4.3-0.9,8.3-2.5,12c-0.1,0.2-0.2,0.6,0.3,0.8c0.5,0.2,2.6,1.2,3.1,1.3
				c0.4,0.2,0.7,0.1,0.9-0.4c1.9-4.2,2.9-8.9,2.9-13.8c0-19.2-15.6-34.8-34.8-34.8c-19.2,0-34.8,15.6-34.8,34.8
				c0,4.2,0.8,8.3,2.2,12C196,73,196.2,73.4,196.8,73.2z"/>
			<path class="st0" d="M187.4,77.5c0.7-0.3,4.8-2.2,5.5-2.5c0.7-0.3,0.4-0.9,0.3-1.2c-1.5-4.1-2.3-8.5-2.3-13.1
				c0-20.8,16.9-37.7,37.7-37.7c20.8,0,37.7,16.9,37.7,37.7c0,5.3-1.1,10.3-3,14.8c-0.1,0.3-0.3,0.8,0.4,1.1c0.7,0.3,4.6,2,5.2,2.3
				c0.5,0.2,0.9,0.2,1.3-0.6c2.3-5.4,3.6-11.4,3.6-17.6c0-24.9-20.2-45.2-45.1-45.2c-24.9,0-45.2,20.3-45.2,45.2
				c0,5.7,1.1,11.2,3,16.3C186.5,77.2,186.7,77.8,187.4,77.5z"/>
		</g>
		<g>
			<path class="st0" d="M228.5,50.9c2.7,0,4.8-2.2,4.8-4.8c0-2.7-2.2-4.8-4.8-4.8c-2.7,0-4.8,2.2-4.8,4.8
				C223.7,48.7,225.8,50.9,228.5,50.9z"/>
			<path class="st0" d="M230.3,76.2c0.9,0,1.7-0.8,1.7-1.7V63.9c0-1.3,1-3.1,1.9-4.1l10-10c0.7-0.7,0.7-1.8,0-2.4l-1.8-1.8
				c-0.7-0.7-1.8-0.7-2.4,0l-9,9.1c-0.6,0.6-1,0.9-2.1,0.9c-1.1,0-1.5-0.4-2.1-0.9l-9-9.1c-0.7-0.7-1.8-0.7-2.4,0l-1.8,1.8
				c-0.7,0.7-0.7,1.8,0,2.4l10,10c1,1,1.9,2.7,1.9,4.1v10.6c0,0.9,0.8,1.7,1.7,1.7H230.3z"/>
		</g>
		<path class="st0" d="M261.8,80c-1.7,0.6-4.8,3.7-6.3,5l-0.4,0.1c0.5-0.6,2.7-3.3,3.3-4.3c1.7-2.8-1.5-5.6-5.1-3.5
			c-1.3,0.8-3.6,3.2-4.7,4l-0.4,0.1c0.5-0.5,2.5-3.1,3.1-4c1.6-2.3-1.7-4.5-4.6-2.8c-2,1.2-3.6,2.8-5.3,4.1l-0.3,0.1
			c0.5-0.4,1.6-1.8,2-2.2c1.7-1.9-0.7-4-3.2-2.7c-2.4,1.2-5.9,4.7-9.7,7.1c1.8,0.9,4.9,1.1,9.8,3.2c4.9,2.1,6.5,7,3.3,10.9
			c-3,3.6-7.5,2.4-11.4,1.2c-4.5-1.4-6.1-2.9-11.6-4.8c-3.6-1.2-5-1.2-4.9-2.2c0.1-1.2,3.1-0.5,6,0.6c8,2.9,18.6,9.5,21.2,2.4
			c2.1-5.6-7.1-8-10.7-8.7c-4.9-0.9-8.3-4.5-12.5-6.8c-6.4-3.5-11.3-3.5-15-2.9c-3.9,0.7-9.6,3.9-13,6c-2.4,1.4-2.2,3.5,0.1,6.8
			c8.2,11.6,21.7,19.2,36.9,19.2c16.2,0,30.4-8.6,38.4-21.4C268.6,81.6,265.9,78.6,261.8,80z"/>
	</g>
	<path class="st0" d="M0,0v122.8h287.9V0H0z M169.2,120.1c-2.7,0-163.8,0-166.4,0c0-2.6,0-114.7,0-117.4c2.6,0,163.8,0,166.4,0
		V120.1z M285.2,120.1c-2.6,0-110.7,0-113.3,0c0-2.6,0-114.7,0-117.4c2.6,0,110.7,0,113.3,0C285.2,5.3,285.2,117.4,285.2,120.1z"/>
	<g>
		<path class="st0" d="M132.4,111.1c0,1.3,4.6,2.7,7.1,2.7c2.4,0,5.8-0.9,7.6-5.2c1.9-4.5,9.5-30.7,9.5-30.7l0.8,0
			c1.7-0.3,2.3-1.3,2.3-4c0-0.9-0.1-1-0.9-1h-6.3c-0.6,0-0.7,0.1-0.9,0.7l-5.2,20.2c0,0-5.4-20.2-5.4-20.2c-0.2-0.6-0.3-0.7-0.8-0.7
			H134c-0.8,0-0.9,0.1-0.9,1c0,2.6,0.6,3.7,2.4,4l0.9,0c0,0,5,17.5,7.7,24.9c0,0-0.4,1.4-0.4,1.4c-0.9,2.7-2.3,4-4.6,4
			c-0.5,0-3.6-0.5-3.6-0.5c-1.7-0.2-2.2,0.6-2.4,1.2C132.6,109.9,132.4,110.9,132.4,111.1z"/>
		<path class="st0" d="M111,63.1h-7.5c-0.7,0-0.7,0.1-0.8,0.7L98.6,90l-5.1-26c-0.1-0.7-0.2-0.8-1-0.8H89c-1.3,0-1.3,0.2-1.5,0.9
			L82.3,90l-4-26.1c-0.1-0.7-0.1-0.7-0.8-0.7h-7.7c-0.8,0-0.9,0.1-0.9,1c0,2.9,0.7,3.9,2.7,4.2l0.8,0l5.9,32.1
			c0.2,0.7,0.3,0.9,1,0.9h5.1c0.8,0,0.8,0,1-0.9l5-25l4.3,25c0.1,0.8,0.2,0.9,1,0.9h5.2c0.7,0,0.8-0.2,1-0.9l6.6-32.2l0.7,0
			c2-0.2,2.7-1.3,2.7-4.2C111.8,63.2,111.7,63.2,111,63.1z"/>
		<path class="st0" d="M130.5,96.3c-0.3-1.1-0.6-2.5-0.6-5.1V81.1c0-6.4-2.8-9.2-9-9.2c-4.4,0-9,1.9-9,3.1c0,0.2,0.2,1.1,0.5,1.9
			c0.1,0.4,0.4,1.3,2.3,1.1c0.8-0.1,4-0.7,5.3-0.7c3.6,0,3.9,2.1,3.9,4.5v2c-4.4,0-14,0-14,9.7c0,5.4,3,8.8,7.9,8.8
			c3.7,0,5.5-2,6.6-3.2l0.4-0.5l0.1,0.7c0.2,1.2,0.4,2,1.4,2h6.4c0.8,0,0.9-0.1,0.9-1C133.6,97.5,132.9,96.5,130.5,96.3z M123.9,95
			c-0.7,0.8-2.2,2.3-4.2,2.3c-2.1,0-3.7-1.8-3.7-4.2c0-5.3,6.3-5,7.9-4.8V95z"/>
		<path class="st0" d="M85.2,49l-0.7,0V26.2c0-0.6,0-0.6-0.6-0.6h-9c-0.8,0-0.9,0.1-0.9,1c0,3.1,0.8,4.1,3.5,4.1h0.7V49l-0.7,0
			C74.9,49,74,49.9,74,53c0,0.9,0.1,1,0.9,1h12.9c0.7,0,0.9-0.1,0.9-1C88.7,50,87.8,49,85.2,49z"/>
		<path class="st0" d="M81.3,14.7c-2.2,0-3.8,1.8-3.8,4.1c0,2.3,1.7,4.1,3.8,4.1c2.1,0,3.8-1.9,3.8-4.1
			C85.1,16.6,83.4,14.7,81.3,14.7z"/>
		<path class="st0" d="M38.7,22h0.2c2.7,0,3.6-1,3.6-4.2c0-1-0.1-1-0.9-1H29.1c-0.7,0-0.8,0.1-0.9,0.5l0,0.5c0,3.1,0.9,4.2,3.5,4.2
			h0.2v18.7c0,3.6,0,8.4-5.7,8.4c-5.3,0-5.8-3.8-5.8-8.4V22h0.2c2.7,0,3.5-1,3.5-4.2c0,0,0-0.6,0-0.6c-0.1-0.3-0.2-0.4-0.9-0.4H10.8
			c-0.8,0-0.9,0.1-0.9,1c0,3.2,0.8,4.2,3.6,4.2h0.2v18.7c0,10.1,3.7,14.4,12.5,14.4c8.7,0,12.5-4.3,12.5-14.4V22z"/>
		<path class="st0" d="M67.4,49V33.6c0-6.2-2.1-9.1-6.6-9.1c-4.1,0-6.4,2.4-8.1,4.2c-0.1-0.7-0.3-1.2-0.3-1.2c-0.3-1.3-0.5-2-1.3-2
			h-7c-0.8,0-0.9,0.1-0.9,1c0,2.9,0.7,4,3.2,4c0.3,1.2,0.6,2.2,0.6,5.2V49c-2.6,0-3.4,1-3.4,4.1c0,0.9,0.1,1,0.9,1h8.3
			c0.5,0,0.5-0.1,0.5-0.6l0-20.6c0.8-0.8,2.5-2.5,4.7-2.5c3.1,0,3.1,3.6,3.1,5.1v18c0,0.5,0,0.6,0.5,0.6h8.3c0.8,0,0.9-0.1,0.9-1
			C70.8,50,70,49,67.4,49z"/>
		<path class="st0" d="M100.7,55c3.7,0,6.7-1,6.7-1.7c0-0.1-0.2-1.2-0.3-1.8c-0.5-2.1-0.7-2.9-4.6-2.4c-0.5,0.1-0.9-0.1-1.2-0.4
			c-0.8-0.8-0.8-2.4-0.8-3.8V30.6h3.5c2.7,0,3.5-0.9,3.5-4.1c0-0.9-0.1-1-0.9-1h-6.1v-8c0-0.8-0.1-0.8-0.3-0.8
			c-0.3,0-1.6,0.2-2.2,0.3c-1.8,0.3-3.7,1.7-3.7,4.9v3.6h-3.6c-0.8,0-0.9,0.1-0.9,1c0,3.1,0.8,4.1,3.5,4.1h1v13.3
			C94.1,49.4,94.1,55,100.7,55z"/>
		<path class="st0" d="M131.3,40.3c0-10.4-3.5-15.8-10.3-15.8c-6.8,0-11.3,6.2-11.3,15.5c0,12.3,6.3,14.9,11.6,14.9
			c4.3,0,9.2-2,9.2-3.2c0-0.2-0.2-1.2-0.5-2c-0.2-0.6-0.6-1.3-2.4-1.2c-1.4,0.1-3.6,0.7-5.7,0.7c-3.9,0-5.9-2.5-6-7.7h14.3
			C131.2,41.6,131.3,41.4,131.3,40.3z M116.2,36.5l0-0.5c0.2-1.9,0.6-6.4,4.6-6.4c3.9,0,4,4.6,4,6.9H116.2z"/>
		<path class="st0" d="M156.8,49c-0.3-1.1-0.6-2.3-0.6-5.1V15.5c0-0.5,0-0.6-0.6-0.6h-8.3c-0.8,0-0.9,0.1-0.9,1c0,3,0.8,4,3.3,4
			l0.2,0v6.5l-0.5-0.4c-0.9-0.6-2.2-1.6-5-1.6c-6.5,0-9.9,5.7-9.9,16.4c0,9.1,3.1,14.1,8.8,14.1c4.5,0,7.5-3.3,7.5-3.3l0.3,1.2
			c0.3,1,0.3,1.1,1.1,1.1h7.3c0.8,0,0.9-0.1,0.9-1C160.4,50,159.6,49,156.8,49z M145.4,49.6c-3.8,0-4.6-3.5-4.6-9.6
			c0-6.5,0.8-10,4.9-10c1.6,0,2.8,0.3,4.2,1.2v16.2C149.1,48.4,147.9,49.6,145.4,49.6z"/>
	</g>
</g>
<g>
	<path class="st0" d="M275.7,114.1c-2,0-3.7-1.6-3.7-3.7c0-2.1,1.7-3.7,3.7-3.7c2,0,3.7,1.6,3.7,3.7
		C279.4,112.5,277.7,114.1,275.7,114.1z M275.7,107.3c-1.7,0-3,1.4-3,3.1c0,1.7,1.3,3.1,3,3.1c1.6,0,3-1.4,3-3.1
		C278.7,108.7,277.4,107.3,275.7,107.3z M276.6,112.5l-0.4-0.6c-0.3-0.5-0.5-0.8-0.7-1c-0.1-0.1-0.1-0.1-0.3-0.1v1.8h-0.7v-4.2h1.3
		c0.9,0,1.4,0.5,1.4,1.2c0,0.6-0.4,1.1-1,1.1c0.2,0.1,0.4,0.5,0.6,0.8l0.6,1H276.6z M275.6,108.9h-0.4v1.3h0.4c0.4,0,0.5,0,0.7-0.2
		c0.1-0.1,0.2-0.3,0.2-0.5C276.4,109.1,276.2,108.9,275.6,108.9z"/>
</g>
</svg>
